<svg width="24.000000" height="24.000000" viewBox="0 0 24 24" fill="none" xmlns="http://www.w3.org/2000/svg" xmlns:xlink="http://www.w3.org/1999/xlink">
	<desc>
			Created with Pixso.
	</desc>
	<defs/>
	<rect id="Iconly/Bulk/Star" rx="0.000000" width="23.000000" height="23.000000" transform="translate(0.500000 0.500000)" fill="#FFFFFF" fill-opacity="0"/>
	<g opacity="0.400000" style="mix-blend-mode:normal">
		<path id="Fill 1" d="M12.97 3.11L15.2 7.58C15.36 7.91 15.67 8.13 16.04 8.18L21.04 8.91C21.33 8.95 21.59 9.11 21.77 9.34C21.95 9.57 22.03 9.87 21.98 10.16C21.95 10.4 21.84 10.62 21.66 10.79L18.04 14.3C17.77 14.55 17.65 14.91 17.72 15.26L18.61 20.2C18.7 20.8 18.31 21.36 17.72 21.48C17.47 21.51 17.22 21.47 17 21.36L12.54 19.04C12.21 18.87 11.82 18.87 11.49 19.04L7.03 21.36C6.48 21.65 5.8 21.45 5.5 20.91C5.38 20.7 5.34 20.45 5.38 20.21L6.27 15.27C6.34 14.92 6.21 14.56 5.95 14.31L2.33 10.8C1.9 10.38 1.88 9.7 2.3 9.27C2.31 9.26 2.32 9.25 2.33 9.24C2.5 9.06 2.73 8.95 2.97 8.92L7.97 8.19C8.33 8.14 8.64 7.92 8.81 7.59L10.95 3.11C11.15 2.72 11.54 2.49 11.97 2.5L12.11 2.5C12.48 2.54 12.8 2.77 12.97 3.11Z" fill="#FFC046" fill-opacity="1.000000" fill-rule="nonzero"/>
	</g>
	<path id="Fill 4" d="M11.99 18.91C11.79 18.92 11.6 18.97 11.43 19.06L7 21.38C6.45 21.64 5.8 21.44 5.5 20.92C5.39 20.71 5.34 20.47 5.38 20.23L6.27 15.3C6.33 14.94 6.21 14.58 5.95 14.32L2.32 10.81C1.89 10.39 1.88 9.7 2.31 9.27C2.31 9.26 2.32 9.26 2.32 9.25C2.49 9.08 2.72 8.97 2.95 8.94L7.96 8.2C8.32 8.15 8.64 7.93 8.8 7.6L10.97 3.06C11.18 2.69 11.58 2.47 12 2.5C11.99 2.79 11.99 18.71 11.99 18.91Z" fill="#FFC046" fill-opacity="1.000000" fill-rule="nonzero"/>
</svg>
