<svg width="16.799988" height="14.400024" viewBox="0 0 16.8 14.4" fill="none" xmlns="http://www.w3.org/2000/svg" xmlns:xlink="http://www.w3.org/1999/xlink">
	<desc>
			Created with Pixso.
	</desc>
	<defs/>
	<path id="“" d="M9.18 9.4C9.18 7.44 9.79 5.63 11.01 3.99C12.25 2.33 13.82 1 15.73 0L16.79 1.35C15.82 2.13 14.96 3.01 14.22 3.97C13.49 4.93 13.13 5.89 13.13 6.85C13.13 7.38 13.23 7.75 13.44 7.94C13.65 8.13 13.93 8.32 14.26 8.5C14.67 8.75 15.06 9.11 15.42 9.57C15.78 10.02 15.97 10.61 15.97 11.34C15.97 12.2 15.68 12.93 15.12 13.52C14.55 14.1 13.81 14.4 12.91 14.4C11.92 14.4 11.05 13.98 10.29 13.15C9.55 12.32 9.18 11.07 9.18 9.4ZM0 9.4C0 7.44 0.61 5.63 1.83 3.99C3.06 2.33 4.64 1 6.54 0L7.61 1.35C6.64 2.13 5.78 3.01 5.03 3.97C4.31 4.93 3.94 5.89 3.94 6.85C3.94 7.38 4.05 7.75 4.25 7.94C4.47 8.13 4.74 8.32 5.08 8.5C5.49 8.75 5.87 9.11 6.23 9.57C6.6 10.02 6.78 10.61 6.78 11.34C6.78 12.2 6.5 12.93 5.93 13.52C5.36 14.1 4.63 14.4 3.73 14.4C2.74 14.4 1.86 13.98 1.11 13.15C0.37 12.32 0 11.07 0 9.4Z" fill="#6FB587" fill-opacity="1.000000" fill-rule="nonzero"/>
</svg>
